<svg xmlns="http://www.w3.org/2000/svg" width="268.649" height="104.474" viewBox="0 0 71.080086 27.642151"><text style="line-height:1" x="35.363" y="8.041" font-weight="400" font-size="10.583" font-family="sans-serif" letter-spacing="0" word-spacing="0" stroke-width=".265"><tspan x="35.363" y="8.041" style="line-height:1;-inkscape-font-specification:'DejaVu Serif';text-align:center" font-family="DejaVu Serif" text-anchor="middle">The Whiskey</tspan><tspan x="35.363" y="18.624" style="line-height:1;-inkscape-font-specification:'DejaVu Serif';text-align:center" font-family="DejaVu Serif" text-anchor="middle">Express</tspan></text><path d="M9.749 15.095l-1.588 1.572.394 2.2-1.985-1.025-1.97 1.054.36-2.205-1.611-1.547 2.209-.338.973-2.012 1.004 1.997zm57.129 0l-1.589 1.572.395 2.2-1.986-1.026-1.97 1.055.361-2.205-1.612-1.547 2.21-.338.973-2.012 1.004 1.996z"/><path d="M0 20.407v7.235h71.08v-7.235H0zm30.177.998l.804 1.648 1.772.252-1.272 1.298.316 1.816-1.59-.846-1.576.87.289-1.82-1.29-1.278 1.767-.28.78-1.66zm5.562 0l.803 1.648 1.772.252-1.27 1.298.315 1.816-1.59-.846-1.576.87.289-1.82-1.29-1.278 1.767-.28.78-1.66zm5.803 0l.804 1.648 1.772.252-1.272 1.298.316 1.816-1.59-.846-1.576.87.289-1.82-1.29-1.278 1.768-.28.78-1.66z" fill="#000300"/></svg>